<?xml version="1.0" standalone="no"?>
<!DOCTYPE svg PUBLIC "-//W3C//DTD SVG 20010904//EN"
 "http://www.w3.org/TR/2001/REC-SVG-20010904/DTD/svg10.dtd">
<svg version="1.0" xmlns="http://www.w3.org/2000/svg"
 width="225.000000pt" height="225.000000pt" viewBox="0 0 225.000000 225.000000"
 preserveAspectRatio="xMidYMid meet">

<g transform="translate(0.000000,225.000000) scale(0.100000,-0.100000)"
fill="#000000" stroke="none">
<path d="M1015 2243 c-42 -7 -65 -31 -65 -67 0 -85 -53 -180 -124 -221 -89
-52 -212 -40 -293 30 -57 48 -79 46 -153 -21 -144 -128 -165 -174 -111 -236
48 -56 65 -97 65 -168 1 -133 -97 -235 -235 -247 -90 -9 -94 -17 -94 -183 0
-165 4 -174 93 -184 214 -24 305 -260 162 -423 -49 -55 -42 -73 68 -184 112
-114 135 -122 196 -69 125 110 320 72 391 -76 10 -21 21 -64 25 -96 10 -90 16
-93 179 -93 123 0 141 2 160 19 13 12 21 31 21 51 0 48 25 122 54 160 83 109
255 123 363 30 65 -55 80 -50 194 63 111 110 121 134 73 188 -77 88 -92 197
-39 292 43 79 130 132 215 132 22 0 48 8 61 19 23 19 24 24 24 159 0 165 -5
175 -88 186 -68 9 -125 35 -165 75 -44 45 -63 83 -69 147 -8 72 11 132 58 189
58 70 55 81 -59 196 -112 114 -135 122 -196 69 -50 -44 -102 -63 -172 -63
-134 1 -244 111 -244 243 0 21 -8 47 -18 60 -16 19 -28 22 -132 25 -63 2 -128
1 -145 -2z m265 -489 c116 -27 205 -79 300 -174 93 -93 145 -180 174 -296 21
-80 21 -238 1 -316 -19 -70 -60 -168 -72 -168 -5 0 -70 62 -146 138 l-138 138
16 59 c18 70 19 106 4 177 -41 196 -233 337 -427 314 -125 -15 -124 -42 9
-181 l101 -105 -7 -57 c-11 -92 -17 -101 -72 -108 -26 -3 -61 -9 -76 -12 -25
-4 -40 7 -137 102 -73 72 -114 106 -126 103 -34 -6 -45 -47 -42 -148 3 -78 8
-105 30 -152 46 -100 131 -175 238 -213 57 -20 182 -21 236 -1 l41 14 144
-144 c165 -165 163 -150 24 -205 -70 -28 -94 -33 -200 -37 -208 -7 -342 44
-485 188 -135 134 -190 266 -190 453 0 190 55 323 190 457 92 92 168 138 282
171 80 22 239 24 328 3z"/>
</g>
</svg>
