<?xml version="1.0" standalone="no"?>
<!DOCTYPE svg PUBLIC "-//W3C//DTD SVG 20010904//EN"
 "http://www.w3.org/TR/2001/REC-SVG-20010904/DTD/svg10.dtd">
<svg version="1.0" xmlns="http://www.w3.org/2000/svg"
 width="256.000000pt" height="256.000000pt" viewBox="0 0 256.000000 256.000000"
 preserveAspectRatio="xMidYMid meet">

<g transform="translate(0.000000,256.000000) scale(0.100000,-0.100000)"
fill="#000000" stroke="none">
<path d="M995 2066 c-141 -47 -157 -54 -135 -63 14 -6 206 -70 427 -144 l402
-134 166 55 c91 30 165 57 165 60 0 8 -822 280 -845 279 -11 0 -92 -24 -180
-53z"/>
<path d="M483 1897 c-84 -28 -153 -54 -153 -57 0 -3 190 -68 423 -146 l422
-141 168 56 c92 31 167 58 167 61 0 9 -824 280 -850 279 -14 0 -94 -24 -177
-52z"/>
<path d="M212 1252 l3 -515 445 -149 c245 -81 450 -148 457 -148 9 0 11 118
10 510 l-2 510 -458 153 -457 154 2 -515z"/>
<path d="M1690 1616 l-455 -153 -3 -511 c-1 -282 1 -512 5 -512 4 0 85 26 179
57 l171 57 -19 42 c-10 24 -22 74 -27 111 -25 199 73 383 251 473 100 49 210
61 331 34 l27 -6 0 281 c0 154 -1 281 -2 280 -2 0 -208 -69 -458 -153z"/>
<path d="M1937 1120 c-114 -20 -214 -98 -265 -208 -23 -49 -27 -69 -26 -147 0
-69 5 -101 21 -135 47 -102 123 -170 227 -202 164 -50 333 20 417 174 32 60
34 68 34 163 0 88 -3 106 -27 155 -49 99 -149 179 -244 195 -75 12 -89 13
-137 5z m97 -216 c9 -8 16 -31 16 -50 0 -32 2 -34 34 -34 40 0 66 -22 66 -54
0 -32 -19 -46 -62 -46 -37 0 -38 -1 -38 -35 0 -36 -28 -75 -53 -75 -27 0 -48
27 -54 68 -5 40 -7 42 -39 42 -35 0 -64 21 -64 47 0 28 31 53 67 53 29 0 33 3
33 28 0 60 57 94 94 56z"/>
</g>
</svg>
